{"title":"Very Sexy Muslim Girl Fucking with  Burkha @ mastitorrents","uid":5213289,"size":84214520,"categoryP":"porn","categoryS":"movie_clips","magnet":"?xt=urn:btih:b89d46227e06770667cb3680ea06436bc236c5ba&amp;dn=Very+Sexy+Muslim+Girl+Fucking+with++Burkha+%40+mastitorrents&amp;tr=udp%3A%2F%2Ftracker.openbittorrent.com%3A80&amp;tr=udp%3A%2F%2Fopen.demonii.com%3A1337&amp;tr=udp%3A%2F%2Ftracker.coppersurfer.tk%3A6969&amp;tr=udp%3A%2F%2Fexodus.desync.com%3A6969","seeders":0,"leechers":1,"uploader":"PKJMKJ","files":-1,"time":1260690575,"description":"Very Sexy Muslim Girl Fucking with  Burkha @ mastitorrents\n\n\n\nGeneral\nComplete name : Very Sexy Muslim Girl Fucking with Burkha on her Face.mp4\nFormat : MPEG-4\nFormat profile : Base Media\nCodec ID : isom\nFile size : 79.9 MiB\nDuration : 10mn 11s\nOverall bit rate : 1 095 Kbps\nEncoded date : UTC 2009-12-08 22:59:22\nTagged date : UTC 2009-12-08 22:59:22\n\nVideo\nID : 1\nFormat : MPEG-4 Visual\nFormat profile : Simple@L1\nFormat settings, BVOP : No\nFormat settings, QPel : No\nFormat settings, GMC : No warppoints\nFormat settings, Matrix : Default (H.263)\nCodec ID : 20\nDuration : 10mn 11s\nBit rate mode : Variable\nBit rate : 1 002 Kbps\nWidth : 480 pixels\nHeight : 320 pixels\nDisplay aspect ratio : 1.500\nFrame rate mode : Constant\nFrame rate : 25.000 fps\nResolution : 24 bits\nColorimetry : 4:2:0\nScan type : Progressive\nBits/(Pixel*Frame) : 0.261\nStream size : 73.1 MiB (92%)\nWriting library : Lavc51.40.4\nEncoded date : UTC 2009-12-08 22:59:22\nTagged date : UTC 2009-12-08 22:59:22\n\nAudio\nID : 2\nFormat : AAC\nFormat/Info : Advanced Audio Codec\nFormat version : Version 4\nFormat profile : LC\nFormat settings, SBR : No\nCodec ID : 40\nDuration : 10mn 11s\nBit rate mode : Variable\nBit rate : 88.2 Kbps\nChannel(s) : 2 channels\nChannel positions : L R\nSampling rate : 44.1 KHz\nResolution : 16 bits\nStream size : 6.44 MiB (8%)\nEncoded date : UTC 2009-12-08 22:59:22\nTagged date : UTC 2009-12-08 22:59:22","torrent":{"xt":"urn:btih:b89d46227e06770667cb3680ea06436bc236c5ba","amp;dn":"Very+Sexy+Muslim+Girl+Fucking+with++Burkha+%40+mastitorrents","amp;tr":["udp%3A%2F%2Ftracker.openbittorrent.com%3A80","udp%3A%2F%2Fopen.demonii.com%3A1337","udp%3A%2F%2Ftracker.coppersurfer.tk%3A6969","udp%3A%2F%2Fexodus.desync.com%3A6969"],"infoHash":"b89d46227e06770667cb3680ea06436bc236c5ba","infoHashBuffer":{"type":"Buffer","data":[184,157,70,34,126,6,119,6,103,203,54,128,234,6,67,107,194,54,197,186]},"announce":[],"urlList":[]}}